<?xml version="1.0" encoding="UTF-8" standalone="no"?><!DOCTYPE svg PUBLIC "-//W3C//DTD SVG 1.1//EN" "http://www.w3.org/Graphics/SVG/1.1/DTD/svg11.dtd"><svg width="100%" height="100%" viewBox="0 0 4800 1200" version="1.1" xmlns="http://www.w3.org/2000/svg" xmlns:xlink="http://www.w3.org/1999/xlink" xml:space="preserve" xmlns:serif="http://www.serif.com/" style="fill-rule:evenodd;clip-rule:evenodd;stroke-linejoin:round;stroke-miterlimit:1.41421;"><g opacity="0.9"><path d="M1677.08,979.2c-49.92,0 -94.88,-11.68 -134.88,-35.04c-40,-23.36 -71.68,-55.2 -95.04,-95.52c-23.36,-40.32 -35.04,-85.76 -35.04,-136.32c0,-50.56 10.72,-95.84 32.16,-135.84c21.44,-40 50.72,-71.68 87.84,-95.04c37.12,-23.36 79.04,-35.04 125.76,-35.04c37.76,0 72.64,7.84 104.64,23.52c32,15.68 58.88,36.96 80.64,63.84l0,-259.2c0,-14.72 4.64,-26.56 13.92,-35.52c9.28,-8.96 20.96,-13.44 35.04,-13.44c14.72,0 26.56,4.48 35.52,13.44c8.96,8.96 13.44,20.8 13.44,35.52l0,437.76c0,50.56 -11.68,96 -35.04,136.32c-23.36,40.32 -54.88,72.16 -94.56,95.52c-39.68,23.36 -84.48,35.04 -134.4,35.04Zm0,-86.4c32.64,0 61.76,-7.84 87.36,-23.52c25.6,-15.68 45.76,-37.28 60.48,-64.8c14.72,-27.52 22.08,-58.24 22.08,-92.16c0,-34.56 -7.36,-65.28 -22.08,-92.16c-14.72,-26.88 -34.88,-48.16 -60.48,-63.84c-25.6,-15.68 -54.72,-23.52 -87.36,-23.52c-32,0 -60.96,7.84 -86.88,23.52c-25.92,15.68 -46.4,36.96 -61.44,63.84c-15.04,26.88 -22.56,57.6 -22.56,92.16c0,33.92 7.52,64.64 22.56,92.16c15.04,27.52 35.52,49.12 61.44,64.8c25.92,15.68 54.88,23.52 86.88,23.52Z" style="fill:#fff;fill-rule:nonzero;stroke:#ffffa7;stroke-width:1px;"/><path d="M2326.04,979.2c-53.12,0 -100.32,-11.36 -141.6,-34.08c-41.28,-22.72 -73.6,-54.08 -96.96,-94.08c-23.36,-40 -35.04,-85.92 -35.04,-137.76c0,-52.48 11.04,-98.72 33.12,-138.72c22.08,-40 52.64,-71.36 91.68,-94.08c39.04,-22.72 83.84,-34.08 134.4,-34.08c49.92,0 92.8,11.04 128.64,33.12c35.84,22.08 63.2,52.48 82.08,91.2c18.88,38.72 28.32,83.36 28.32,133.92c0,12.16 -4.16,22.24 -12.48,30.24c-8.32,8 -18.88,12 -31.68,12l-386.88,0l0,-76.8l384,0l-39.36,26.88c-0.64,-32 -7.04,-60.64 -19.2,-85.92c-12.16,-25.28 -29.44,-45.28 -51.84,-60c-22.4,-14.72 -49.6,-22.08 -81.6,-22.08c-36.48,0 -67.68,8 -93.6,24c-25.92,16 -45.6,37.92 -59.04,65.76c-13.44,27.84 -20.16,59.36 -20.16,94.56c0,35.2 8,66.56 24,94.08c16,27.52 38.08,49.28 66.24,65.28c28.16,16 60.48,24 96.96,24c19.84,0 40.16,-3.68 60.96,-11.04c20.8,-7.36 37.6,-15.84 50.4,-25.44c9.6,-7.04 20,-10.72 31.2,-11.04c11.2,-0.32 20.96,3.04 29.28,10.08c10.88,9.6 16.64,20.16 17.28,31.68c0.64,11.52 -4.48,21.44 -15.36,29.76c-21.76,17.28 -48.8,31.36 -81.12,42.24c-32.32,10.88 -63.2,16.32 -92.64,16.32Z" style="fill:#fff;fill-rule:nonzero;stroke:#ffffa7;stroke-width:1px;"/><path d="M3073.88,976.32c-14.08,0 -25.76,-4.64 -35.04,-13.92c-9.28,-9.28 -13.92,-20.96 -13.92,-35.04l0,-236.16c0,-36.48 -6.72,-66.24 -20.16,-89.28c-13.44,-23.04 -31.52,-40.16 -54.24,-51.36c-22.72,-11.2 -48.8,-16.8 -78.24,-16.8c-26.88,0 -51.2,5.44 -72.96,16.32c-21.76,10.88 -39.04,25.44 -51.84,43.68c-12.8,18.24 -19.2,39.2 -19.2,62.88l-60.48,0c0,-40.32 9.76,-76.32 29.28,-108c19.52,-31.68 46.24,-56.8 80.16,-75.36c33.92,-18.56 72,-27.84 114.24,-27.84c44.16,0 83.68,9.44 118.56,28.32c34.88,18.88 62.4,46.56 82.56,83.04c20.16,36.48 30.24,81.28 30.24,134.4l0,236.16c0,14.08 -4.64,25.76 -13.92,35.04c-9.28,9.28 -20.96,13.92 -35.04,13.92Zm-394.56,0c-14.08,0 -25.76,-4.64 -35.04,-13.92c-9.28,-9.28 -13.92,-20.96 -13.92,-35.04l0,-428.16c0,-14.72 4.64,-26.56 13.92,-35.52c9.28,-8.96 20.96,-13.44 35.04,-13.44c14.72,0 26.56,4.48 35.52,13.44c8.96,8.96 13.44,20.8 13.44,35.52l0,428.16c0,14.08 -4.48,25.76 -13.44,35.04c-8.96,9.28 -20.8,13.92 -35.52,13.92Z" style="fill:#fff;fill-rule:nonzero;stroke:#ffffa7;stroke-width:1px;"/><path d="M3479.96,979.2c-49.92,0 -94.88,-11.68 -134.88,-35.04c-40,-23.36 -71.68,-55.2 -95.04,-95.52c-23.36,-40.32 -35.04,-85.76 -35.04,-136.32c0,-50.56 10.72,-95.84 32.16,-135.84c21.44,-40 50.72,-71.68 87.84,-95.04c37.12,-23.36 79.04,-35.04 125.76,-35.04c37.76,0 72.64,7.84 104.64,23.52c32,15.68 58.88,36.96 80.64,63.84l0,-259.2c0,-14.72 4.64,-26.56 13.92,-35.52c9.28,-8.96 20.96,-13.44 35.04,-13.44c14.72,0 26.56,4.48 35.52,13.44c8.96,8.96 13.44,20.8 13.44,35.52l0,437.76c0,50.56 -11.68,96 -35.04,136.32c-23.36,40.32 -54.88,72.16 -94.56,95.52c-39.68,23.36 -84.48,35.04 -134.4,35.04Zm0,-86.4c32.64,0 61.76,-7.84 87.36,-23.52c25.6,-15.68 45.76,-37.28 60.48,-64.8c14.72,-27.52 22.08,-58.24 22.08,-92.16c0,-34.56 -7.36,-65.28 -22.08,-92.16c-14.72,-26.88 -34.88,-48.16 -60.48,-63.84c-25.6,-15.68 -54.72,-23.52 -87.36,-23.52c-32,0 -60.96,7.84 -86.88,23.52c-25.92,15.68 -46.4,36.96 -61.44,63.84c-15.04,26.88 -22.56,57.6 -22.56,92.16c0,33.92 7.52,64.64 22.56,92.16c15.04,27.52 35.52,49.12 61.44,64.8c25.92,15.68 54.88,23.52 86.88,23.52Z" style="fill:#fff;fill-rule:nonzero;stroke:#ffffa7;stroke-width:1px;"/><path d="M3929.24,647.04c0,-38.4 9.44,-72.8 28.32,-103.2c18.88,-30.4 44.32,-54.56 76.32,-72.48c32,-17.92 67.2,-26.88 105.6,-26.88c38.4,0 67.04,6.24 85.92,18.72c18.88,12.48 26.08,27.36 21.6,44.64c-1.92,8.96 -5.6,15.84 -11.04,20.64c-5.44,4.8 -11.68,7.84 -18.72,9.12c-7.04,1.28 -14.72,0.96 -23.04,-0.96c-40.96,-8.32 -77.76,-8.96 -110.4,-1.92c-32.64,7.04 -58.4,20.16 -77.28,39.36c-18.88,19.2 -28.32,43.52 -28.32,72.96l-48.96,0Zm0.96,328.32c-15.36,0 -27.2,-4 -35.52,-12c-8.32,-8 -12.48,-20 -12.48,-36l0,-429.12c0,-15.36 4.16,-27.2 12.48,-35.52c8.32,-8.32 20.16,-12.48 35.52,-12.48c16,0 28,4 36,12c8,8 12,20 12,36l0,429.12c0,15.36 -4,27.2 -12,35.52c-8,8.32 -20,12.48 -36,12.48Z" style="fill:#fff;fill-rule:nonzero;stroke:#ffffa7;stroke-width:1px;"/><path d="M4463.96,979.2c-46.72,0 -88.64,-11.68 -125.76,-35.04c-37.12,-23.36 -66.4,-55.04 -87.84,-95.04c-21.44,-40 -32.16,-85.28 -32.16,-135.84c0,-50.56 11.68,-96 35.04,-136.32c23.36,-40.32 55.04,-72.16 95.04,-95.52c40,-23.36 84.96,-35.04 134.88,-35.04c49.92,0 94.72,11.68 134.4,35.04c39.68,23.36 71.2,55.2 94.56,95.52c23.36,40.32 35.04,85.76 35.04,136.32l-37.44,0c0,50.56 -10.72,95.84 -32.16,135.84c-21.44,40 -50.72,71.68 -87.84,95.04c-37.12,23.36 -79.04,35.04 -125.76,35.04Zm19.2,-86.4c32.64,0 61.76,-7.84 87.36,-23.52c25.6,-15.68 45.76,-37.12 60.48,-64.32c14.72,-27.2 22.08,-57.76 22.08,-91.68c0,-34.56 -7.36,-65.44 -22.08,-92.64c-14.72,-27.2 -34.88,-48.64 -60.48,-64.32c-25.6,-15.68 -54.72,-23.52 -87.36,-23.52c-32,0 -60.96,7.84 -86.88,23.52c-25.92,15.68 -46.4,37.12 -61.44,64.32c-15.04,27.2 -22.56,58.08 -22.56,92.64c0,33.92 7.52,64.48 22.56,91.68c15.04,27.2 35.52,48.64 61.44,64.32c25.92,15.68 54.88,23.52 86.88,23.52Zm215.04,83.52c-14.08,0 -25.76,-4.64 -35.04,-13.92c-9.28,-9.28 -13.92,-20.96 -13.92,-35.04l0,-146.88l18.24,-101.76l79.68,34.56l0,214.08c0,14.08 -4.64,25.76 -13.92,35.04c-9.28,9.28 -20.96,13.92 -35.04,13.92Z" style="fill:#fff;fill-rule:nonzero;stroke:#ffffa7;stroke-width:1px;"/><path d="M6.192,686.364l271.059,0l75.731,75.731l-115.272,115.272c-4.418,5.01 -5.797,6.1 -9.218,11.884c-2.562,4.332 -4.569,8.969 -5.973,13.803c-7.092,24.41 3.144,52.264 23.892,66.364c21.132,14.361 50.729,13.12 70.5,-2.216c1.984,-1.539 3.768,-3.321 5.652,-4.982l277.437,-277.438l153.23,153.23l-153.23,44.76l424.139,141.38c-108.603,108.582 -258.586,175.778 -424.139,175.778c-301.8,0 -551.856,-223.308 -593.808,-513.566Zm491.808,-677.783c33.154,-5.688 67.234,-8.651 102,-8.651c331.149,0 600,268.851 600,600c0,165.553 -67.196,315.536 -175.778,424.139l-141.379,-424.139l-44.76,153.229l-265.23,-265.229l86.5,-86.5l319.647,0c6.667,-0.42 8.413,-0.214 14.921,-1.885c4.875,-1.252 9.574,-3.112 13.984,-5.537c20.048,-11.022 32.392,-33.843 30.977,-56.346c-1.605,-25.499 -20.725,-48.125 -44.961,-54.347c-2.432,-0.625 -4.934,-0.942 -7.401,-1.412l-7.52,-0.473l-199.647,0l69.823,-69.824c1.661,-1.884 3.444,-3.667 4.983,-5.652c13.887,-17.902 16.322,-43.857 6.051,-64.014c-8.017,-15.735 -23.208,-27.479 -40.371,-31.315c-2.452,-0.548 -4.962,-0.786 -7.442,-1.179c-2.511,-0.079 -5.021,-0.158 -7.532,-0.237c-6.65,0.629 -8.402,0.478 -14.854,2.353c-7.246,2.105 -14.074,5.584 -20.035,10.208c-1.985,1.54 -3.768,3.322 -5.652,4.983l-266.324,266.324l0,-384.496Zm-362.496,211.706l379.643,379.643l-77.312,77.312l-252.739,-252.739c-5.011,-4.417 -6.1,-5.797 -11.884,-9.218c-4.332,-2.562 -8.97,-4.569 -13.803,-5.973c-2.412,-0.701 -4.902,-1.096 -7.353,-1.644c-5.001,-0.472 -10.032,-0.945 -15.033,-0.472c-17.509,1.655 -34.069,11.428 -43.978,26.009c-14.289,21.024 -13.16,50.677 2.215,70.499c1.54,1.985 3.322,3.768 4.983,5.652l57.008,57.008l-156.326,0c7.234,-130.928 56.527,-250.72 134.579,-346.077Zm242.496,72.79l-157.643,-157.643c47.117,-38.566 100.199,-70.111 157.643,-93.03l0,250.673Z" style="fill:#fff;"/></g></svg>