<?xml version="1.0" encoding="UTF-8" standalone="no"?><!DOCTYPE svg PUBLIC "-//W3C//DTD SVG 1.1//EN" "http://www.w3.org/Graphics/SVG/1.1/DTD/svg11.dtd"><svg width="100%" height="100%" viewBox="0 0 108 23" version="1.1" xmlns="http://www.w3.org/2000/svg" xmlns:xlink="http://www.w3.org/1999/xlink" xml:space="preserve" xmlns:serif="http://www.serif.com/" style="fill-rule:evenodd;clip-rule:evenodd;stroke-linejoin:round;stroke-miterlimit:1.41421;"><g><g opacity="0.9"><g><g opacity="0.8"><rect x="3" y="18" width="16" height="2" style="fill:#fff;"/><rect x="3" y="10" width="8" height="2" style="fill:#fff;"/><rect x="3" y="2" width="8" height="2" style="fill:#fff;"/><rect x="2" y="3" width="2" height="16" style="fill:#fff;"/><path d="M18.5,2.086l-8.207,8.207l1.414,1.414l8.207,-8.207l-1.414,-1.414Z" style="fill:#fff;"/></g></g><g><circle cx="19" cy="19" r="4" style="fill:#fff;"/><circle cx="3" cy="19" r="3" style="fill:#fff;"/><circle cx="3" cy="11" r="3" style="fill:#fff;"/><circle cx="11" cy="11" r="3" style="fill:#fff;"/><circle cx="3" cy="3" r="3" style="fill:#fff;"/><circle cx="11" cy="3" r="3" style="fill:#fff;"/><circle cx="19" cy="3" r="3" style="fill:#fff;"/></g><text x="26.502px" y="20.344px" style="font-family:'Inder-Regular', 'Inder', sans-serif;font-size:26px;fill:#fff;">d<tspan x="41.01px 53.373px 67.894px 82.402px 92.581px " y="20.344px 20.344px 20.344px 20.344px 20.344px ">endra</tspan></text></g></g></svg>