<?xml version="1.0" encoding="UTF-8" standalone="no"?><!DOCTYPE svg PUBLIC "-//W3C//DTD SVG 1.1//EN" "http://www.w3.org/Graphics/SVG/1.1/DTD/svg11.dtd"><svg width="100%" height="100%" viewBox="0 0 108 23" version="1.1" xmlns="http://www.w3.org/2000/svg" xmlns:xlink="http://www.w3.org/1999/xlink" xml:space="preserve" xmlns:serif="http://www.serif.com/" style="fill-rule:evenodd;clip-rule:evenodd;stroke-linejoin:round;stroke-miterlimit:1.41421;"><g><g opacity="0.9"><g><g opacity="0.8"><rect x="3" y="18" width="16" height="2" style="fill:#fff;"/><rect x="3" y="10" width="8" height="2" style="fill:#fff;"/><rect x="3" y="2" width="8" height="2" style="fill:#fff;"/><rect x="2" y="3" width="2" height="16" style="fill:#fff;"/><path d="M18.5,2.086l-8.207,8.207l1.414,1.414l8.207,-8.207l-1.414,-1.414Z" style="fill:#fff;"/></g></g><g><circle cx="19" cy="19" r="4" style="fill:#fff;"/><circle cx="3" cy="19" r="3" style="fill:#fff;"/><circle cx="3" cy="11" r="3" style="fill:#fff;"/><circle cx="11" cy="11" r="3" style="fill:#fff;"/><circle cx="3" cy="3" r="3" style="fill:#fff;"/><circle cx="11" cy="3" r="3" style="fill:#fff;"/><circle cx="19" cy="3" r="3" style="fill:#fff;"/></g><path d="M32.448,20.44c-1.248,0 -2.372,-0.292 -3.372,-0.876c-1,-0.584 -1.792,-1.38 -2.376,-2.388c-0.584,-1.008 -0.876,-2.144 -0.876,-3.408c0,-1.264 0.268,-2.396 0.804,-3.396c0.536,-1 1.268,-1.792 2.196,-2.376c0.928,-0.584 1.976,-0.876 3.144,-0.876c0.944,0 1.816,0.196 2.616,0.588c0.8,0.392 1.472,0.924 2.016,1.596l0,-6.48c0,-0.368 0.116,-0.664 0.348,-0.888c0.232,-0.224 0.524,-0.336 0.876,-0.336c0.368,0 0.664,0.112 0.888,0.336c0.224,0.224 0.336,0.52 0.336,0.888l0,10.944c0,1.264 -0.292,2.4 -0.876,3.408c-0.584,1.008 -1.372,1.804 -2.364,2.388c-0.992,0.584 -2.112,0.876 -3.36,0.876Zm0,-2.16c0.816,0 1.544,-0.196 2.184,-0.588c0.64,-0.392 1.144,-0.932 1.512,-1.62c0.368,-0.688 0.552,-1.456 0.552,-2.304c0,-0.864 -0.184,-1.632 -0.552,-2.304c-0.368,-0.672 -0.872,-1.204 -1.512,-1.596c-0.64,-0.392 -1.368,-0.588 -2.184,-0.588c-0.8,0 -1.524,0.196 -2.172,0.588c-0.648,0.392 -1.16,0.924 -1.536,1.596c-0.376,0.672 -0.564,1.44 -0.564,2.304c0,0.848 0.188,1.616 0.564,2.304c0.376,0.688 0.888,1.228 1.536,1.62c0.648,0.392 1.372,0.588 2.172,0.588Z" style="fill:#fff;fill-rule:nonzero;"/><path d="M48.432,20.44c-1.328,0 -2.508,-0.284 -3.54,-0.852c-1.032,-0.568 -1.84,-1.352 -2.424,-2.352c-0.584,-1 -0.876,-2.148 -0.876,-3.444c0,-1.312 0.276,-2.468 0.828,-3.468c0.552,-1 1.316,-1.784 2.292,-2.352c0.976,-0.568 2.096,-0.852 3.36,-0.852c1.248,0 2.32,0.276 3.216,0.828c0.896,0.552 1.58,1.312 2.052,2.28c0.472,0.968 0.708,2.084 0.708,3.348c0,0.304 -0.104,0.556 -0.312,0.756c-0.208,0.2 -0.472,0.3 -0.792,0.3l-9.672,0l0,-1.92l9.6,0l-0.984,0.672c-0.016,-0.8 -0.176,-1.516 -0.48,-2.148c-0.304,-0.632 -0.736,-1.132 -1.296,-1.5c-0.56,-0.368 -1.24,-0.552 -2.04,-0.552c-0.912,0 -1.692,0.2 -2.34,0.6c-0.648,0.4 -1.14,0.948 -1.476,1.644c-0.336,0.696 -0.504,1.484 -0.504,2.364c0,0.88 0.2,1.664 0.6,2.352c0.4,0.688 0.952,1.232 1.656,1.632c0.704,0.4 1.512,0.6 2.424,0.6c0.496,0 1.004,-0.092 1.524,-0.276c0.52,-0.184 0.94,-0.396 1.26,-0.636c0.24,-0.176 0.5,-0.268 0.78,-0.276c0.28,-0.008 0.524,0.076 0.732,0.252c0.272,0.24 0.416,0.504 0.432,0.792c0.016,0.288 -0.112,0.536 -0.384,0.744c-0.544,0.432 -1.22,0.784 -2.028,1.056c-0.808,0.272 -1.58,0.408 -2.316,0.408Z" style="fill:#fff;fill-rule:nonzero;"/><path d="M66.888,20.368c-0.352,0 -0.644,-0.116 -0.876,-0.348c-0.232,-0.232 -0.348,-0.524 -0.348,-0.876l0,-5.904c0,-0.912 -0.168,-1.656 -0.504,-2.232c-0.336,-0.576 -0.788,-1.004 -1.356,-1.284c-0.568,-0.28 -1.22,-0.42 -1.956,-0.42c-0.672,0 -1.28,0.136 -1.824,0.408c-0.544,0.272 -0.976,0.636 -1.296,1.092c-0.32,0.456 -0.48,0.98 -0.48,1.572l-1.512,0c0,-1.008 0.244,-1.908 0.732,-2.7c0.488,-0.792 1.156,-1.42 2.004,-1.884c0.848,-0.464 1.8,-0.696 2.856,-0.696c1.104,0 2.092,0.236 2.964,0.708c0.872,0.472 1.56,1.164 2.064,2.076c0.504,0.912 0.756,2.032 0.756,3.36l0,5.904c0,0.352 -0.116,0.644 -0.348,0.876c-0.232,0.232 -0.524,0.348 -0.876,0.348Zm-9.864,0c-0.352,0 -0.644,-0.116 -0.876,-0.348c-0.232,-0.232 -0.348,-0.524 -0.348,-0.876l0,-10.704c0,-0.368 0.116,-0.664 0.348,-0.888c0.232,-0.224 0.524,-0.336 0.876,-0.336c0.368,0 0.664,0.112 0.888,0.336c0.224,0.224 0.336,0.52 0.336,0.888l0,10.704c0,0.352 -0.112,0.644 -0.336,0.876c-0.224,0.232 -0.52,0.348 -0.888,0.348Z" style="fill:#fff;fill-rule:nonzero;"/><path d="M76.8,20.44c-1.248,0 -2.372,-0.292 -3.372,-0.876c-1,-0.584 -1.792,-1.38 -2.376,-2.388c-0.584,-1.008 -0.876,-2.144 -0.876,-3.408c0,-1.264 0.268,-2.396 0.804,-3.396c0.536,-1 1.268,-1.792 2.196,-2.376c0.928,-0.584 1.976,-0.876 3.144,-0.876c0.944,0 1.816,0.196 2.616,0.588c0.8,0.392 1.472,0.924 2.016,1.596l0,-6.48c0,-0.368 0.116,-0.664 0.348,-0.888c0.232,-0.224 0.524,-0.336 0.876,-0.336c0.368,0 0.664,0.112 0.888,0.336c0.224,0.224 0.336,0.52 0.336,0.888l0,10.944c0,1.264 -0.292,2.4 -0.876,3.408c-0.584,1.008 -1.372,1.804 -2.364,2.388c-0.992,0.584 -2.112,0.876 -3.36,0.876Zm0,-2.16c0.816,0 1.544,-0.196 2.184,-0.588c0.64,-0.392 1.144,-0.932 1.512,-1.62c0.368,-0.688 0.552,-1.456 0.552,-2.304c0,-0.864 -0.184,-1.632 -0.552,-2.304c-0.368,-0.672 -0.872,-1.204 -1.512,-1.596c-0.64,-0.392 -1.368,-0.588 -2.184,-0.588c-0.8,0 -1.524,0.196 -2.172,0.588c-0.648,0.392 -1.16,0.924 -1.536,1.596c-0.376,0.672 -0.564,1.44 -0.564,2.304c0,0.848 0.188,1.616 0.564,2.304c0.376,0.688 0.888,1.228 1.536,1.62c0.648,0.392 1.372,0.588 2.172,0.588Z" style="fill:#fff;fill-rule:nonzero;"/><path d="M87.792,12.136c0,-0.96 0.236,-1.82 0.708,-2.58c0.472,-0.76 1.108,-1.364 1.908,-1.812c0.8,-0.448 1.68,-0.672 2.64,-0.672c0.96,0 1.676,0.156 2.148,0.468c0.472,0.312 0.652,0.684 0.54,1.116c-0.048,0.224 -0.14,0.396 -0.276,0.516c-0.136,0.12 -0.292,0.196 -0.468,0.228c-0.176,0.032 -0.368,0.024 -0.576,-0.024c-1.024,-0.208 -1.944,-0.224 -2.76,-0.048c-0.816,0.176 -1.46,0.504 -1.932,0.984c-0.472,0.48 -0.708,1.088 -0.708,1.824l-1.224,0Zm0.024,8.208c-0.384,0 -0.68,-0.1 -0.888,-0.3c-0.208,-0.2 -0.312,-0.5 -0.312,-0.9l0,-10.728c0,-0.384 0.104,-0.68 0.312,-0.888c0.208,-0.208 0.504,-0.312 0.888,-0.312c0.4,0 0.7,0.1 0.9,0.3c0.2,0.2 0.3,0.5 0.3,0.9l0,10.728c0,0.384 -0.1,0.68 -0.3,0.888c-0.2,0.208 -0.5,0.312 -0.9,0.312Z" style="fill:#fff;fill-rule:nonzero;"/><path d="M100.92,20.44c-1.168,0 -2.216,-0.292 -3.144,-0.876c-0.928,-0.584 -1.66,-1.376 -2.196,-2.376c-0.536,-1 -0.804,-2.132 -0.804,-3.396c0,-1.264 0.292,-2.4 0.876,-3.408c0.584,-1.008 1.376,-1.804 2.376,-2.388c1,-0.584 2.124,-0.876 3.372,-0.876c1.248,0 2.368,0.292 3.36,0.876c0.992,0.584 1.78,1.38 2.364,2.388c0.584,1.008 0.876,2.144 0.876,3.408l-0.936,0c0,1.264 -0.268,2.396 -0.804,3.396c-0.536,1 -1.268,1.792 -2.196,2.376c-0.928,0.584 -1.976,0.876 -3.144,0.876Zm0.48,-2.16c0.816,0 1.544,-0.196 2.184,-0.588c0.64,-0.392 1.144,-0.928 1.512,-1.608c0.368,-0.68 0.552,-1.444 0.552,-2.292c0,-0.864 -0.184,-1.636 -0.552,-2.316c-0.368,-0.68 -0.872,-1.216 -1.512,-1.608c-0.64,-0.392 -1.368,-0.588 -2.184,-0.588c-0.8,0 -1.524,0.196 -2.172,0.588c-0.648,0.392 -1.16,0.928 -1.536,1.608c-0.376,0.68 -0.564,1.452 -0.564,2.316c0,0.848 0.188,1.612 0.564,2.292c0.376,0.68 0.888,1.216 1.536,1.608c0.648,0.392 1.372,0.588 2.172,0.588Zm5.376,2.088c-0.352,0 -0.644,-0.116 -0.876,-0.348c-0.232,-0.232 -0.348,-0.524 -0.348,-0.876l0,-3.672l0.456,-2.544l1.992,0.864l0,5.352c0,0.352 -0.116,0.644 -0.348,0.876c-0.232,0.232 -0.524,0.348 -0.876,0.348Z" style="fill:#fff;fill-rule:nonzero;"/></g></g></svg>